<svg width="248" height="248" viewBox="0 0 248 248" fill="#ffffff" xmlns="http://www.w3.org/2000/svg">
<path fill-rule="evenodd" clip-rule="evenodd" d="M124 248C192.484 248 248 192.483 248 124C248 55.5167 192.484 0 124 0C55.5167 0 0 55.5167 0 124C0 192.483 55.5167 248 124 248ZM144.207 76.2526C148.851 79.6732 151.479 84.4722 152.091 90.6496H183.857C183.704 81.3069 181.203 73.0873 176.356 65.991C171.508 58.8946 164.721 53.3553 155.995 49.3732C147.32 45.3911 137.165 43.4 125.531 43.4C114.1 43.4 103.895 45.3911 94.9136 49.3732C85.9325 53.3553 78.865 58.8946 73.7111 65.991C68.6082 73.0873 66.0823 81.3835 66.1333 90.8793C66.0823 102.468 69.8839 111.683 77.5383 118.525C85.1926 125.366 95.628 130.394 108.844 133.611L125.914 137.899C131.629 139.278 136.451 140.809 140.38 142.494C144.36 144.179 147.371 146.221 149.412 148.62C151.505 151.02 152.551 153.981 152.551 157.504C152.551 161.281 151.402 164.625 149.106 167.535C146.81 170.445 143.57 172.717 139.385 174.351C135.252 175.985 130.379 176.802 124.765 176.802C119.05 176.802 113.922 175.934 109.38 174.198C104.89 172.411 101.292 169.782 98.5876 166.31C95.9341 162.788 94.4288 158.397 94.0716 153.139H62C62.2551 164.421 64.9852 173.892 70.1901 181.55C75.4461 189.156 82.7432 194.9 92.0815 198.78C101.471 202.66 112.493 204.6 125.148 204.6C137.905 204.6 148.8 202.685 157.832 198.857C166.915 194.976 173.855 189.539 178.652 182.545C183.5 175.5 185.949 167.178 186 157.58C185.949 151.045 184.75 145.251 182.402 140.197C180.106 135.142 176.866 130.752 172.681 127.025C168.497 123.298 163.547 120.158 157.832 117.606C152.117 115.053 145.84 113.011 139.002 111.479L124.918 108.11C121.5 107.344 118.285 106.425 115.274 105.353C112.263 104.23 109.61 102.928 107.314 101.447C105.017 99.9157 103.206 98.1033 101.879 96.0102C100.603 93.917 100.016 91.4664 100.118 88.6585C100.118 85.289 101.088 82.2769 103.027 79.6221C105.017 76.9674 107.875 74.8997 111.6 73.4192C115.325 71.8876 119.892 71.1218 125.301 71.1218C133.262 71.1218 139.564 72.8321 144.207 76.2526Z"/>
    <defs>
        <linearGradient id="paint0_linear_61403_2" x1="11.4461" y1="-39.9555" x2="331.488" y2="162.571" gradientUnits="userSpaceOnUse">
            <stop stop-color="#152331"/>
            <stop offset="1"/>
        </linearGradient>
    </defs>
</svg>
